<?xml version="1.0" standalone="no"?>
<!DOCTYPE svg PUBLIC "-//W3C//DTD SVG 20010904//EN"
 "http://www.w3.org/TR/2001/REC-SVG-20010904/DTD/svg10.dtd">
<svg version="1.0" xmlns="http://www.w3.org/2000/svg"
 width="700.000000pt" height="700.000000pt" viewBox="0 0 700.000000 700.000000"
 preserveAspectRatio="xMidYMid meet">
<metadata>
Created by potrace 1.14, written by Peter Selinger 2001-2017
</metadata>
<g transform="translate(0.000000,700.000000) scale(0.100000,-0.100000)"
fill="#000000" stroke="none">
<path d="M3413 6258 c-32 -40 -60 -75 -63 -78 -3 -3 -25 -29 -50 -59 l-45 -55
-1 -2245 c0 -1235 4 -2254 8 -2263 8 -16 29 -18 218 -18 189 0 210 2 218 18 5
9 8 1028 8 2263 l-1 2246 -84 104 c-99 122 -132 159 -142 159 -5 0 -34 -33
-66 -72z"/>
<path d="M3044 5803 c-6 -10 -47 -61 -90 -114 -83 -100 -98 -119 -225 -276
l-79 -97 3 -1886 2 -1885 220 0 220 0 0 2135 c0 2127 0 2135 -20 2138 -11 1
-25 -5 -31 -15z"/>
<path d="M3865 5808 c-3 -7 -4 -969 -3 -2138 l3 -2125 220 0 220 0 3 1886 2
1886 -72 89 c-101 125 -150 185 -170 207 -9 11 -49 61 -90 113 -69 88 -102
112 -113 82z"/>
<path d="M2438 5043 c-42 -46 -292 -355 -321 -398 -15 -22 -36 -69 -47 -104
-20 -62 -20 -96 -21 -1523 0 -802 3 -1463 6 -1468 10 -16 432 -13 438 3 6 16
6 3488 0 3504 -8 20 -27 15 -55 -14z"/>
<path d="M4475 5062 c-8 -5 -10 -547 -9 -1752 0 -960 2 -1751 3 -1757 1 -17
426 -19 437 -2 3 6 6 666 6 1467 -1 1584 1 1509 -57 1607 -20 36 -230 299
-336 423 -20 23 -28 26 -44 14z"/>
<path d="M2679 1061 c-5 -14 -14 -34 -19 -43 -15 -26 -13 -28 20 -28 18 0 30
5 30 13 0 7 14 27 30 45 17 18 30 34 30 35 0 1 -18 3 -41 3 -35 1 -42 -2 -50
-25z"/>
<path d="M4116 1083 c-2 -2 10 -18 25 -34 16 -17 29 -37 29 -45 0 -10 12 -14
38 -13 20 0 32 3 25 5 -6 3 -17 24 -24 48 -12 41 -14 43 -51 43 -21 0 -39 -2
-42 -4z"/>
<path d="M1562 995 c1 -53 6 -64 22 -47 4 4 40 8 80 8 l72 2 -1 -173 c0 -96
-3 -177 -7 -181 -18 -17 -4 -22 63 -23 59 -1 68 1 57 13 -10 10 -13 52 -12
182 1 93 2 172 3 175 2 9 138 5 147 -3 17 -18 24 -5 24 49 0 44 -3 54 -12 45
-15 -15 -418 -17 -418 -2 0 6 -4 10 -9 10 -5 0 -9 -25 -9 -55z"/>
<path d="M3532 1013 c9 -10 55 -103 103 -208 71 -154 85 -193 76 -207 -10 -17
-6 -18 64 -18 43 0 75 4 75 10 0 6 -4 10 -10 10 -11 0 -2 27 35 105 12 28 42
91 65 140 59 129 81 169 94 177 6 4 -24 8 -68 8 -67 0 -77 -2 -67 -14 10 -12
0 -42 -49 -153 -34 -76 -64 -140 -66 -142 -3 -4 -51 94 -110 226 -20 47 -21
54 -8 68 14 13 7 15 -67 15 -77 0 -81 -1 -67 -17z"/>
<path d="M3068 950 c-120 -35 -178 -171 -119 -276 55 -98 201 -130 319 -70 28
14 58 26 67 26 12 0 10 8 -10 39 l-26 39 -24 -22 c-47 -44 -150 -54 -201 -21
-79 51 -75 161 6 205 54 29 156 16 194 -25 l21 -23 28 39 c16 22 23 39 16 39
-7 0 -36 12 -64 26 -56 27 -156 38 -207 24z"/>
<path d="M5125 951 c-77 -19 -134 -72 -153 -141 -25 -94 34 -196 129 -224 65
-19 183 -11 229 15 8 5 28 14 44 19 22 8 26 13 17 24 -17 20 -18 100 -2 120
12 15 5 16 -81 16 -60 0 -98 4 -106 12 -9 9 -12 0 -12 -43 0 -31 4 -49 8 -41
5 7 32 14 61 16 l52 2 -5 -29 c-6 -36 -7 -37 -51 -47 -42 -9 -97 -5 -137 11
-56 23 -78 94 -47 156 24 48 48 63 110 68 49 3 129 -19 129 -37 0 -4 4 -8 8
-8 8 0 42 63 42 78 0 20 -185 45 -235 33z"/>
<path d="M2059 941 c22 -14 22 -338 1 -351 -10 -7 7 -10 53 -10 50 0 66 3 61
12 -4 7 -9 40 -11 75 l-2 63 47 0 c46 -1 48 -2 89 -62 32 -47 40 -65 32 -75
-9 -11 3 -13 67 -13 l78 0 -31 33 c-17 17 -45 52 -62 76 l-31 45 32 13 c44 18
68 50 68 91 0 48 -24 88 -61 101 -39 13 -351 15 -330 2z m279 -65 c24 -8 30
-44 10 -64 -7 -7 -45 -12 -99 -12 l-86 0 0 43 0 42 77 -1 c42 -1 86 -5 98 -8z"/>
<path d="M2489 928 c4 -13 8 -78 9 -145 0 -137 9 -159 70 -189 52 -25 183 -25
236 1 55 27 66 60 66 208 0 82 4 127 12 135 9 9 -2 12 -52 12 -50 0 -61 -3
-52 -12 18 -18 16 -237 -2 -261 -28 -36 -115 -43 -161 -13 -28 18 -31 36 -30
164 1 79 5 106 16 113 9 6 -9 9 -53 9 -66 0 -67 -1 -59 -22z"/>
<path d="M4140 935 c11 -13 0 -42 -66 -176 -43 -88 -86 -165 -94 -170 -10 -5
12 -8 60 -9 46 0 70 4 61 9 -18 11 -5 69 17 79 15 6 70 7 148 3 29 -1 52 -54
34 -76 -11 -13 -3 -15 66 -15 l77 0 -20 23 c-39 43 -165 297 -160 323 4 24 3
24 -66 24 -61 0 -68 -2 -57 -15z m84 -145 c14 -27 26 -53 26 -58 0 -8 -99 -10
-103 -1 -2 5 44 109 49 109 1 0 14 -22 28 -50z"/>
<path d="M4490 941 c0 -6 4 -12 9 -15 11 -7 9 -316 -2 -333 -6 -10 7 -13 54
-13 52 0 60 2 50 14 -10 12 -18 162 -12 220 1 6 50 -39 110 -99 83 -83 107
-113 99 -122 -8 -10 3 -13 57 -13 53 0 65 3 57 13 -14 16 -14 328 0 344 8 10
-3 13 -53 13 -49 0 -60 -3 -51 -12 8 -8 12 -49 12 -117 l0 -106 -105 105 c-80
80 -102 107 -93 117 8 10 -3 13 -61 13 -39 0 -71 -4 -71 -9z"/>
</g>
</svg>
