<?xml version="1.0" encoding="UTF-8" standalone="no"?>
<!-- Created with Inkscape (http://www.inkscape.org/) -->

<svg
   version="1.1"
   id="svg2"
   xml:space="preserve"
   width="245.66667"
   height="245.66667"
   viewBox="0 0 245.66667 245.66667"
   sodipodi:docname="Truc Vang Logo FINAL-02.eps"
   xmlns:inkscape="http://www.inkscape.org/namespaces/inkscape"
   xmlns:sodipodi="http://sodipodi.sourceforge.net/DTD/sodipodi-0.dtd"
   xmlns="http://www.w3.org/2000/svg"
   xmlns:svg="http://www.w3.org/2000/svg"><defs
     id="defs6" /><sodipodi:namedview
     id="namedview4"
     pagecolor="#ffffff"
     bordercolor="#666666"
     borderopacity="1.0"
     inkscape:pageshadow="2"
     inkscape:pageopacity="0.0"
     inkscape:pagecheckerboard="0" /><g
     id="g8"
     inkscape:groupmode="layer"
     inkscape:label="ink_ext_XXXXXX"
     transform="matrix(1.3333333,0,0,-1.3333333,0,245.66667)"><g
       id="g10"
       transform="scale(0.1)"><path
         d="m 539.074,411.84 c 0,-3.731 3.028,-6.75 6.758,-6.75 h 104.699 c 3.731,0 6.758,3.019 6.758,6.75 v 608.51 4.97 302.56 c 0,6.35 -7.976,9.19 -11.992,4.27 l -81.109,-99.36 c -16.243,-19.9 -25.114,-44.79 -25.114,-70.47 V 411.84"
         style="fill:#fab80a;fill-opacity:1;fill-rule:nonzero;stroke:none"
         id="path12" /><path
         d="m 816.242,411.84 c 0,-3.731 -3.023,-6.75 -6.758,-6.75 H 704.785 c -3.73,0 -6.758,3.019 -6.758,6.75 v 984.32 c 0,2.56 0.887,5.05 2.508,7.03 l 103.719,127.05 c 4.016,4.92 11.988,2.08 11.988,-4.28 V 411.84"
         style="fill:#fab80a;fill-opacity:1;fill-rule:nonzero;stroke:none"
         id="path14" /><path
         d="m 1015.94,1525.96 c 0,6.36 7.97,9.2 11.99,4.28 l 103.71,-127.05 c 1.63,-1.99 2.51,-4.48 2.51,-7.05 v -984.3 c 0,-3.731 -3.02,-6.75 -6.75,-6.75 h -104.7 c -3.74,0 -6.76,3.019 -6.76,6.75 v 1114.12"
         style="fill:#fab80a;fill-opacity:1;fill-rule:nonzero;stroke:none"
         id="path16" /><path
         d="m 1174.9,1327.88 c 0,6.35 7.97,9.19 11.99,4.27 l 81.11,-99.36 c 16.24,-19.9 25.11,-44.79 25.11,-70.47 V 411.84 c 0,-3.731 -3.03,-6.75 -6.76,-6.75 h -104.7 c -3.73,0 -6.75,3.019 -6.75,6.75 v 916.04"
         style="fill:#fab80a;fill-opacity:1;fill-rule:nonzero;stroke:none"
         id="path18" /><path
         d="m 975.199,411.84 c 0,-3.731 -3.023,-6.75 -6.758,-6.75 H 863.742 c -3.734,0 -6.758,3.019 -6.758,6.75 v 1180.61 c 0,2.55 0.875,5.02 2.477,7 l 51.375,63.55 c 2.703,3.34 7.805,3.34 10.512,0 l 51.379,-63.55 c 1.597,-1.98 2.472,-4.45 2.472,-7 V 411.84"
         style="fill:#fab80a;fill-opacity:1;fill-rule:nonzero;stroke:none"
         id="path20" /><path
         d="m 482.93,251.84 v -89.789 c 0,-1.801 0.406,-3.16 1.211,-4.082 0.82,-0.93 2.261,-1.68 4.343,-2.258 v -2.77 h -36.961 v 2.77 c 2.082,0.578 3.524,1.328 4.34,2.258 0.809,0.922 1.215,2.281 1.215,4.082 v 89.789 h -36.789 c -1.734,0 -3.066,-0.391 -3.988,-1.192 -0.926,-0.789 -1.676,-2.238 -2.262,-4.359 h -2.773 v 30.633 h 2.773 c 0.637,-2.113 1.402,-3.563 2.305,-4.363 0.894,-0.797 2.211,-1.2 3.945,-1.2 h 99.344 c 1.797,0 3.152,0.403 4.07,1.2 0.93,0.8 1.688,2.25 2.262,4.363 h 2.777 v -30.633 h -2.777 c -0.574,2.121 -1.332,3.57 -2.262,4.359 -0.918,0.801 -2.273,1.192 -4.07,1.192 H 482.93"
         style="fill:#fab80a;fill-opacity:1;fill-rule:nonzero;stroke:none"
         id="path22" /><path
         d="m 569.258,210.461 h 35.051 c 5.32,0 9.25,0.578 11.793,1.738 3.593,1.563 5.378,4.653 5.378,9.281 0,4.102 -1.253,6.969 -3.769,8.59 -2.52,1.621 -6.981,2.43 -13.402,2.43 h -35.051 z m 0,-17.609 v -30.993 c 0,-1.789 0.406,-3.16 1.215,-4.109 0.804,-0.961 2.25,-1.75 4.34,-2.379 v -2.43 h -34.364 v 2.43 c 2.028,0.52 3.453,1.27 4.297,2.25 0.832,0.988 1.254,2.367 1.254,4.168 v 79.473 c 0,1.789 -0.402,3.148 -1.211,4.078 -0.809,0.922 -2.262,1.699 -4.34,2.34 v 2.429 h 63.68 c 8.277,0 14.578,-0.418 18.918,-1.257 4.34,-0.84 8.207,-2.364 11.629,-4.563 6.996,-4.559 10.496,-12.019 10.496,-22.379 0,-7.871 -2.16,-14.012 -6.465,-18.43 -4.305,-4.429 -11.269,-7.628 -20.867,-9.589 l 18.39,-25.629 c 3.352,-4.731 6.036,-7.942 8.028,-9.653 1.996,-1.699 4.265,-2.781 6.808,-3.238 v -2.43 h -40.859 v 2.43 c 3.008,0.801 4.52,2.098 4.52,3.891 0,1.269 -0.93,3.207 -2.786,5.797 l -19.414,27.793 h -23.269"
         style="fill:#fab80a;fill-opacity:1;fill-rule:nonzero;stroke:none"
         id="path24" /><path
         d="m 730.242,285.941 v -2.339 c -2.25,-0.063 -3.961,-0.84 -5.113,-2.34 L 712.805,266.16 c -0.344,-0.398 -0.516,-0.871 -0.516,-1.39 0,-0.93 0.609,-1.391 1.82,-1.391 0.063,0 0.172,0 0.344,0 v -2.34 h -18.82 v 2.34 c 1.383,0 2.371,0.211 2.945,0.609 0.578,0.403 1.129,1.242 1.652,2.524 l 5.723,14.136 c 0.235,0.524 0.344,0.954 0.344,1.301 0,0.922 -0.809,1.473 -2.422,1.653 v 2.339 z m 25.34,-44.679 v -51.453 c 0,-11.739 -2.312,-20.36 -6.945,-25.848 -7.461,-8.742 -21.512,-13.109 -42.157,-13.109 -13.832,0 -24.996,2.117 -33.496,6.339 -6.129,3.059 -10.324,7.43 -12.574,13.098 -2.09,5.211 -3.129,11.711 -3.129,19.52 v 51.453 c 0,1.789 -0.402,3.148 -1.211,4.078 -0.808,0.922 -2.261,1.699 -4.343,2.34 v 2.429 h 34.355 v -2.429 c -2.105,-0.578 -3.559,-1.34 -4.348,-2.301 -0.8,-0.949 -1.203,-2.328 -1.203,-4.117 v -46.774 c 0,-5.429 0.481,-9.597 1.434,-12.488 0.957,-2.891 2.613,-5.262 4.984,-7.109 4.746,-3.762 11.606,-5.641 20.571,-5.641 8.964,0 15.812,1.879 20.558,5.641 2.313,1.847 3.938,4.218 4.856,7.109 0.929,2.891 1.39,7.059 1.39,12.488 v 46.774 c 0,1.789 -0.394,3.148 -1.168,4.078 -0.781,0.922 -2.242,1.699 -4.383,2.34 v 2.429 h 32.36 v -2.429 c -2.078,-0.578 -3.531,-1.34 -4.34,-2.301 -0.809,-0.949 -1.211,-2.328 -1.211,-4.117"
         style="fill:#fab80a;fill-opacity:1;fill-rule:nonzero;stroke:none"
         id="path26" /><path
         d="m 866.879,187.82 14.66,-21.441 -1.992,-1.469 c -1.387,0.981 -2.484,1.469 -3.293,1.469 -0.988,0 -3.274,-1.07 -6.859,-3.207 -7.926,-4.621 -14.922,-7.832 -20.997,-9.633 -6.07,-1.789 -13.074,-2.687 -20.992,-2.687 -15.847,0 -28.773,3.789 -38.789,11.367 -5.664,4.34 -10.176,9.781 -13.527,16.312 -3.594,7.059 -5.379,14.719 -5.379,23 0,11.391 3.293,21.449 9.891,30.188 10.347,13.64 26.222,20.472 47.625,20.472 7.925,0 14.972,-0.902 21.128,-2.691 6.161,-1.789 13.176,-5 21.04,-9.629 3.585,-2.141 5.871,-3.211 6.859,-3.211 0.809,0 1.906,0.488 3.293,1.481 l 1.992,-1.559 -14.66,-21.262 -1.91,1.379 c 0.058,0.692 0.121,1.121 0.179,1.289 0.051,0.524 0.086,0.903 0.086,1.133 0,2.82 -3.91,6.008 -11.714,9.578 -7.411,3.403 -14.868,5.102 -22.379,5.102 -10.532,0 -19.211,-2.77 -26.036,-8.313 -7.804,-6.226 -11.707,-14.218 -11.707,-23.957 0,-9.812 3.903,-17.832 11.707,-24.062 6.883,-5.481 15.555,-8.219 26.036,-8.219 8.207,0 16.386,2.051 24.547,6.16 6.359,3.238 9.546,6.07 9.546,8.5 0,0.121 -0.086,0.922 -0.265,2.43 l 1.91,1.48"
         style="fill:#fab80a;fill-opacity:1;fill-rule:nonzero;stroke:none"
         id="path28" /><path
         d="m 995.215,187.359 31.425,69.52 c 1.33,2.953 2,5.23 2,6.851 0,2.489 -1.91,4.11 -5.73,4.86 v 2.769 h 40.54 v -2.769 c -2.54,-0.352 -4.31,-1.07 -5.29,-2.168 -0.98,-1.102 -2.69,-4.281 -5.13,-9.543 l -41.05,-88.59 c -1.74,-3.758 -2.61,-6.219 -2.61,-7.367 0,-2.953 1.82,-4.692 5.47,-5.211 v -2.77 h -40.805 v 2.77 c 3.649,0.519 5.469,2.289 5.469,5.301 0,1.09 -0.867,3.519 -2.606,7.277 l -41.066,88.59 c -2.434,5.262 -4.133,8.441 -5.121,9.543 -0.981,1.098 -2.742,1.816 -5.297,2.168 v 2.769 h 42.074 v -2.769 c -3.816,-0.75 -5.722,-2.371 -5.722,-4.86 0,-1.621 0.66,-3.898 1.992,-6.851 l 31.457,-69.52"
         style="fill:#fab80a;fill-opacity:1;fill-rule:nonzero;stroke:none"
         id="path30" /><path
         d="m 1120.37,190.852 -15.91,31.257 -15.15,-31.257 z m -39.3,95.089 h 26.38 v -2.339 c -1.63,-0.18 -2.43,-0.731 -2.43,-1.653 0,-0.347 0.11,-0.777 0.34,-1.301 l 5.73,-14.136 c 0.52,-1.282 1.07,-2.121 1.64,-2.524 0.58,-0.398 1.57,-0.609 2.96,-0.609 v -2.34 h -18.83 v 2.34 c 0.17,0 0.32,0 0.44,0 1.15,0 1.73,0.461 1.73,1.391 0,0.519 -0.18,0.992 -0.52,1.39 l -12.33,15.102 c -1.15,1.5 -2.86,2.277 -5.11,2.34 z m 46.29,-108.711 h -44.68 l -5.04,-10.582 c -1.21,-2.546 -1.82,-4.546 -1.82,-5.988 0,-2.781 1.85,-4.539 5.55,-5.289 v -2.43 h -35.7 v 2.43 c 2.2,0.34 3.83,1.008 4.91,1.988 1.06,0.981 2.32,2.922 3.77,5.813 l 35.48,71.84 c 1.33,2.718 2,5.09 2,7.117 0,2.371 -1.62,4.223 -4.86,5.551 v 2.429 h 37.74 v -2.429 c -3.18,-1.27 -4.77,-3.239 -4.77,-5.899 0,-1.91 0.72,-4.25 2.16,-7.031 l 36.79,-69.672 c 2.03,-3.777 3.62,-6.226 4.78,-7.348 1.15,-1.121 2.91,-1.902 5.29,-2.359 v -2.43 h -39.7 v 2.43 c 3.76,0.629 5.64,2.379 5.64,5.27 0,1.781 -0.72,4 -2.17,6.648 l -5.37,9.941"
         style="fill:#fab80a;fill-opacity:1;fill-rule:nonzero;stroke:none"
         id="path32" /><path
         d="m 1207.34,216.969 v -55.11 c 0,-1.789 0.42,-3.168 1.26,-4.16 0.83,-0.98 2.27,-1.75 4.29,-2.328 v -2.43 h -32.28 v 2.43 c 2.03,0.52 3.46,1.27 4.3,2.25 0.84,0.988 1.26,2.367 1.26,4.168 v 79.473 c 0,1.789 -0.41,3.148 -1.21,4.078 -0.81,0.922 -2.27,1.699 -4.35,2.34 v 2.429 h 37.32 v -2.429 c -2.54,-0.641 -3.81,-1.77 -3.81,-3.391 0,-1.379 0.93,-3 2.77,-4.848 l 52.13,-51.711 v 53.532 c 0,1.789 -0.4,3.168 -1.21,4.117 -0.81,0.961 -2.26,1.723 -4.34,2.301 v 2.429 h 32.27 v -2.429 c -2.08,-0.578 -3.52,-1.34 -4.33,-2.301 -0.81,-0.949 -1.22,-2.32 -1.22,-4.117 v -79.391 c 0,-1.793 0.41,-3.172 1.22,-4.121 0.81,-0.949 2.25,-1.75 4.33,-2.379 v -2.43 h -34.8 v 2.43 c 2.55,0.508 3.82,1.57 3.82,3.18 0,0.801 -0.34,1.64 -1.04,2.5 -0.7,0.859 -2.29,2.551 -4.77,5.078 l -51.61,50.84"
         style="fill:#fab80a;fill-opacity:1;fill-rule:nonzero;stroke:none"
         id="path34" /><path
         d="m 1396.79,190.422 h -22.12 c -1.85,0 -3.25,-0.41 -4.2,-1.223 -0.96,-0.808 -1.73,-2.25 -2.31,-4.34 h -2.34 v 25.77 h 2.34 c 0.58,-2.059 1.35,-3.5 2.31,-4.32 0.95,-0.821 2.35,-1.231 4.2,-1.231 h 46.25 v -2.508 c -2.03,-0.582 -3.47,-1.422 -4.3,-2.519 -0.84,-1.102 -1.25,-2.66 -1.25,-4.692 v -20.468 c 0,-1.801 0.41,-3.192 1.25,-4.172 0.83,-0.981 2.27,-1.758 4.3,-2.34 v -2 c -18.75,-10.348 -37.42,-15.527 -56.05,-15.527 -16.08,0 -29.09,3.789 -39.05,11.367 -5.38,4.16 -9.71,9.312 -13.01,15.453 -3.88,7.277 -5.81,15.058 -5.81,23.328 0,11.449 3.52,21.629 10.58,30.539 10.99,13.77 27.25,20.652 48.76,20.652 9.43,0 20.19,-2.082 32.27,-6.25 4.81,-1.621 7.61,-2.421 8.43,-2.421 0.98,0 2.13,0.46 3.46,1.378 l 2.09,-1.128 -11.59,-24.461 -2.08,1.043 c 0,0.23 0,0.398 0,0.519 0,2.141 -2.14,4.34 -6.42,6.59 -7.91,4.23 -16.41,6.34 -25.49,6.34 -10.46,0 -19.05,-2.871 -25.75,-8.59 -7.05,-6.02 -10.57,-14.109 -10.57,-24.301 0,-9.539 3.2,-17.172 9.62,-22.898 6.6,-5.84 15.85,-8.762 27.77,-8.762 11.33,0 20.91,2.109 28.71,6.332 v 14.84"
         style="fill:#fab80a;fill-opacity:1;fill-rule:nonzero;stroke:none"
         id="path36" /></g></g></svg>
